<svg width="25" height="24" viewBox="0 0 25 24" fill="none" xmlns="http://www.w3.org/2000/svg">
<path d="M20.2474 11.0312C20.1777 11.1009 20.095 11.1563 20.0039 11.194C19.9129 11.2318 19.8153 11.2512 19.7167 11.2512C19.6182 11.2512 19.5206 11.2318 19.4295 11.194C19.3385 11.1563 19.2558 11.1009 19.1861 11.0312L13.7167 5.5609V20.2506C13.7167 20.4495 13.6377 20.6403 13.4971 20.7809C13.3564 20.9216 13.1656 21.0006 12.9667 21.0006C12.7678 21.0006 12.577 20.9216 12.4364 20.7809C12.2957 20.6403 12.2167 20.4495 12.2167 20.2506V5.5609L6.74735 11.0312C6.60662 11.1719 6.41575 11.251 6.21673 11.251C6.0177 11.251 5.82683 11.1719 5.6861 11.0312C5.54537 10.8905 5.46631 10.6996 5.46631 10.5006C5.46631 10.3016 5.54537 10.1107 5.6861 9.96996L12.4361 3.21996C12.5058 3.15023 12.5885 3.09491 12.6795 3.05717C12.7706 3.01943 12.8682 3 12.9667 3C13.0653 3 13.1629 3.01943 13.2539 3.05717C13.345 3.09491 13.4277 3.15023 13.4974 3.21996L20.2474 9.96996C20.3171 10.0396 20.3724 10.1223 20.4101 10.2134C20.4479 10.3044 20.4673 10.402 20.4673 10.5006C20.4673 10.5992 20.4479 10.6967 20.4101 10.7878C20.3724 10.8788 20.3171 10.9616 20.2474 11.0312Z" fill="#FBFBFB"/>
</svg>
