<svg width="33" height="32" viewBox="0 0 33 32" fill="none" xmlns="http://www.w3.org/2000/svg">
<path d="M25.9669 8V21C25.9669 21.2652 25.8615 21.5196 25.674 21.7071C25.4864 21.8946 25.2321 22 24.9669 22C24.7016 22 24.4473 21.8946 24.2598 21.7071C24.0722 21.5196 23.9669 21.2652 23.9669 21V10.4137L9.67437 24.7075C9.48672 24.8951 9.23223 25.0006 8.96686 25.0006C8.7015 25.0006 8.44701 24.8951 8.25936 24.7075C8.07172 24.5199 7.96631 24.2654 7.96631 24C7.96631 23.7346 8.07172 23.4801 8.25936 23.2925L22.5531 9H11.9669C11.7016 9 11.4473 8.89464 11.2598 8.70711C11.0722 8.51957 10.9669 8.26522 10.9669 8C10.9669 7.73478 11.0722 7.48043 11.2598 7.29289C11.4473 7.10536 11.7016 7 11.9669 7H24.9669C25.2321 7 25.4864 7.10536 25.674 7.29289C25.8615 7.48043 25.9669 7.73478 25.9669 8Z" fill="#4C4C4C"/>
</svg>
