<svg width="875" height="250" viewBox="0 0 875 250" fill="none" xmlns="http://www.w3.org/2000/svg">
<path d="M121.832 250V153.178H71.2848V250H0.804152V0.826024H71.2848V99.7837H121.832V0.826024H192.312V250H121.832ZM291.517 250V140.363L206.442 0.826024H284.042L326.046 72.7305H330.317L372.321 0.826024H449.921L364.846 140.363V250H291.517ZM464.182 250V0.826024H560.291C633.976 0.826024 650.35 26.8113 650.35 73.4424V95.5121C650.35 141.787 633.976 171.688 560.291 171.688H534.662V250H464.182ZM534.662 115.802H556.02C575.242 115.802 580.937 105.835 580.937 88.0369V84.4773C580.937 66.6791 575.242 56.7122 556.02 56.7122H534.662V115.802ZM674.491 250V0.826024H777.721C849.625 0.826024 865.644 24.3196 865.644 66.3232V78.7819C865.644 109.039 856.389 119.362 826.132 120.786V124.345C857.1 126.481 866.711 142.499 866.711 169.552V221.879C866.711 236.473 868.135 241.457 874.187 247.864V250H798.723C796.587 244.305 795.519 237.541 795.519 227.218V182.367C795.519 164.213 790.891 156.738 772.381 156.738H744.972V250H674.491ZM744.972 103.699H772.381C791.603 103.699 797.299 97.6479 797.299 84.4773V77.358C797.299 63.1195 791.603 56.7122 772.381 56.7122H744.972V103.699Z" fill="#FBFBFB"/>
</svg>
