<?xml version="1.0" encoding="UTF-8"?>
<svg xmlns="http://www.w3.org/2000/svg" version="1.1" viewBox="0 0 805 330">
  <defs>
    <style>
      .cls-1 {
        fill: #fff;
      }
    </style>
  </defs>
  <!-- Generator: Adobe Illustrator 28.7.1, SVG Export Plug-In . SVG Version: 1.2.0 Build 142)  -->
  <g>
    <g id="Layer_1">
      <g>
        <path class="cls-1" d="M228.05,17.07h77.18l16.72,108.91h1.29l16.72-108.91h77.18l-57.03,202.38v90.04h-75.47v-90.04L228.05,17.07Z"/>
        <path class="cls-1" d="M540.2,17.07c7.14,0,14,1.43,20.58,4.29,6.57,2.86,12.22,6.65,16.94,11.36,4.72,4.72,8.5,10.36,11.36,16.94,2.85,6.58,4.29,13.44,4.29,20.58v94.33c0,7.44-1.43,14.3-4.29,20.58-2.86,6.29-6.65,11.87-11.36,16.72-4.72,4.86-10.36,8.65-16.94,11.36-6.58,2.72-13.44,4.07-20.58,4.07h-36.02v92.19h-72.04V17.07h108.05ZM504.18,151.28h12.01c3.14,0,4.72-1.57,4.72-4.72v-58.74c0-3.14-1.57-4.72-4.72-4.72h-12.01v68.18Z"/>
        <path class="cls-1" d="M777.74,141.85c0,7.72-.21,14.01-.64,18.87-.43,4.86-1.5,8.65-3.22,11.36-1.72,2.72-4.29,4.79-7.72,6.22-3.43,1.43-8.15,2.57-14.15,3.43v1.71c6,.86,10.72,2,14.15,3.43,3.43,1.43,6,3.5,7.72,6.22,1.71,2.72,2.79,6.51,3.22,11.36.43,4.86.64,11.15.64,18.87v86.18h-75.89v-87.9c0-3.43-1.57-5.14-4.72-5.14h-6.86c-3.15,0-4.72,1.71-4.72,5.14v87.9h-75.47V17.07h114.48c7.14,0,14,1.36,20.58,4.07,6.57,2.72,12.22,6.51,16.94,11.36,4.72,4.86,8.5,10.51,11.36,16.94,2.85,6.43,4.29,13.22,4.29,20.37v72.04ZM685.55,160.71h11.58c3.14,0,4.72-1.57,4.72-4.72v-68.18c0-3.14-1.57-4.72-4.72-4.72h-11.58v77.61Z"/>
        <path class="cls-1" d="M213.91,17.07v292.42h-75.48v-113.19h-18.44v113.19H44.53v-113.19h-12.95c-6.16-22.01-12.31-44.03-18.47-66.04h31.42V17.07h75.47v113.19h18.44V17.07h75.48Z"/>
      </g>
    </g>
  </g>
</svg>