<svg width="148" height="147" viewBox="0 0 148 147" fill="none" xmlns="http://www.w3.org/2000/svg">
<path d="M58.2368 62.3232H62.7301L70.3692 76.1461L78.0083 62.3232H82.4036V85.0347H78.7384V67.6299L72.0401 79.6839H68.6003L61.902 67.6299V85.0347H58.2368V62.3232Z" fill="#FBFBFB"/>
<path d="M94.2317 85.4365C92.5314 85.4365 91.0418 85.0592 89.7531 84.3095C88.4644 83.5598 87.4648 82.5161 86.7445 81.1882C86.0242 79.8603 85.6665 78.3315 85.6665 76.6116C85.6665 74.8917 86.0193 73.3286 86.72 71.9909C87.4207 70.6483 88.4007 69.5997 89.6502 68.8451C90.8997 68.0905 92.3354 67.7083 93.9573 67.7083C95.5792 67.7083 96.9561 68.0905 98.1174 68.85C99.2787 69.6144 100.175 70.6826 100.803 72.0546C101.43 73.4266 101.743 75.0387 101.743 76.8909V77.8954H89.3023C89.5277 79.2821 90.0912 80.3699 90.983 81.1637C91.8748 81.9575 93.0018 82.3544 94.364 82.3544C95.4567 82.3544 96.3975 82.1927 97.1864 81.8693C97.9753 81.5459 98.7152 81.051 99.411 80.3944L101.356 82.7807C99.4208 84.5545 97.0443 85.4414 94.2366 85.4414L94.2317 85.4365ZM96.9071 71.9664C96.1378 71.1824 95.1333 70.7904 93.8887 70.7904C92.6441 70.7904 91.6641 71.1922 90.8458 71.9909C90.0275 72.7896 89.513 73.8676 89.2974 75.22H98.2203C98.1125 73.8333 97.6764 72.7504 96.9071 71.9664Z" fill="#FBFBFB"/>
<path d="M106.188 71.1139H102.812V68.1151H106.188V63.1514H109.726V68.1151H114.851V71.1139H109.726V78.7236C109.726 79.9878 109.942 80.8894 110.373 81.4333C110.804 81.9723 111.544 82.2467 112.597 82.2467C113.063 82.2467 113.455 82.2271 113.783 82.1879C114.107 82.1487 114.464 82.0997 114.851 82.036V85.0054C114.45 85.123 113.999 85.221 113.499 85.2994C112.994 85.3729 112.47 85.4121 111.916 85.4121C108.099 85.4121 106.188 83.3247 106.188 79.1499V71.1188V71.1139Z" fill="#FBFBFB"/>
<path d="M133.28 85.0298H129.811V82.6631C129.194 83.55 128.41 84.236 127.459 84.7162C126.509 85.1964 125.426 85.4365 124.215 85.4365C122.721 85.4365 121.403 85.0543 120.251 84.2948C119.1 83.5304 118.193 82.4818 117.532 81.149C116.87 79.8113 116.542 78.2874 116.542 76.5675C116.542 74.8476 116.875 73.309 117.546 71.9762C118.218 70.6483 119.144 69.6046 120.33 68.8451C121.515 68.0905 122.873 67.7083 124.411 67.7083C125.568 67.7083 126.607 67.9337 127.528 68.3796C128.449 68.8304 129.208 69.4625 129.816 70.2857V68.1101H133.285V85.0298H133.28ZM129.743 74.0342C129.365 73.0738 128.767 72.3143 127.949 71.7557C127.131 71.1971 126.19 70.9227 125.117 70.9227C123.603 70.9227 122.397 71.4323 121.501 72.4466C120.604 73.4609 120.153 74.8378 120.153 76.5675C120.153 78.2972 120.584 79.6888 121.452 80.7031C122.319 81.7174 123.49 82.227 124.97 82.227C126.063 82.227 127.033 81.9477 127.89 81.3842C128.743 80.8207 129.36 80.0661 129.738 79.1155V74.0391L129.743 74.0342Z" fill="#FBFBFB"/>
<path d="M40.5226 61.5537C37.5728 61.5537 35.2698 63.7734 33.1824 66.5958C30.3159 62.9453 27.9198 61.5537 25.0484 61.5537C19.1978 61.5537 14.7192 69.1683 14.7192 77.2239C14.7192 82.266 17.1594 85.4461 21.246 85.4461C24.186 85.4461 26.3028 84.0594 30.0611 77.4885C30.0611 77.4885 31.6291 74.72 32.7071 72.8139C33.0844 73.4215 33.4813 74.0781 33.9027 74.7837L35.6667 77.7482C39.1016 83.4959 41.0126 85.4412 44.4818 85.4412C48.4606 85.4412 50.6754 82.217 50.6754 77.072C50.6754 68.6342 46.0939 61.5488 40.5275 61.5488L40.5226 61.5537ZM27.1946 75.7049C24.1468 80.4824 23.0933 81.5555 21.393 81.5555C19.6927 81.5555 18.6098 80.0218 18.6098 77.2876C18.6098 71.437 21.5253 65.459 25.0043 65.459C26.8859 65.459 28.4588 66.5468 30.8696 69.9964C28.5813 73.5048 27.1946 75.7098 27.1946 75.7098V75.7049ZM38.6998 75.1022L36.5928 71.5889C36.0244 70.6628 35.4756 69.8102 34.9464 69.0262C36.8476 66.096 38.4156 64.6309 40.2776 64.6309C44.1486 64.6309 47.2454 70.3296 47.2454 77.3366C47.2454 80.0071 46.3732 81.5555 44.5602 81.5555C42.7472 81.5555 41.9926 80.4089 38.6998 75.1071V75.1022Z" fill="#FBFBFB"/>
<path d="M36.5934 71.5892C32.0217 64.1559 28.9788 61.554 25.0539 61.554L25.0049 65.4593C27.5774 65.4593 29.5668 67.4879 33.9033 74.784L34.1679 75.2299L36.5934 71.5892Z" fill="#FBFBFB"/>
</svg>
