<svg width="148" height="147" viewBox="0 0 148 147" fill="none" xmlns="http://www.w3.org/2000/svg">
<path fill-rule="evenodd" clip-rule="evenodd" d="M76.2783 48.0444C80.1542 42.9386 85.5393 42.9092 85.5393 42.9092C85.5393 42.9092 86.3429 47.7112 82.4915 52.3368C78.3804 57.276 73.7058 56.4675 73.7058 56.4675C73.7058 56.4675 72.8287 52.5818 76.2734 48.0395L76.2783 48.0444Z" fill="#FBFBFB"/>
<path fill-rule="evenodd" clip-rule="evenodd" d="M74.2059 59.8338C76.2002 59.8338 79.8997 57.0947 84.7164 57.0947C93.0072 57.0947 96.2706 62.9943 96.2706 62.9943C96.2706 62.9943 89.8908 66.2577 89.8908 74.1712C89.8908 83.099 97.8386 86.1762 97.8386 86.1762C97.8386 86.1762 92.282 101.812 84.7801 101.812C81.3354 101.812 78.6551 99.4895 75.0242 99.4895C71.3933 99.4895 67.6497 101.9 65.2585 101.9C58.4083 101.9 49.75 87.068 49.75 75.1463C49.75 63.2246 57.0755 57.2662 63.9502 57.2662C68.419 57.2662 71.8833 59.8436 74.2059 59.8436V59.8338Z" fill="#FBFBFB"/>
</svg>
