<svg width="148" height="147" viewBox="0 0 148 147" fill="none" xmlns="http://www.w3.org/2000/svg">
<path d="M39.8076 71.148C41.7823 71.148 43.7521 71.148 45.7268 71.148C45.815 71.148 45.9032 71.1529 45.9914 71.148C46.1678 71.1382 46.2413 71.2264 46.2609 71.393C46.3001 71.7311 46.3589 72.0692 46.3834 72.4073C46.5353 74.5878 46.2805 76.7144 45.4916 78.7675C44.7909 80.5903 43.6394 82.0897 42.1645 83.3539C40.327 84.9219 38.2053 85.848 35.8141 86.191C33.1436 86.5732 30.527 86.3821 28.0427 85.3041C23.1574 83.1824 20.1635 79.5074 19.3844 74.2105C18.7964 70.1925 19.9528 66.5959 22.5645 63.4942C24.5735 61.1079 27.1215 59.5693 30.1497 58.8294C31.6981 58.4521 33.2661 58.3933 34.8537 58.5403C37.2792 58.7657 39.4646 59.6085 41.4295 61.0393C41.8803 61.3676 42.3066 61.7204 42.7182 62.0977C42.8554 62.2251 42.8848 62.3231 42.7378 62.4701C41.9587 63.2639 41.1894 64.0675 40.4103 64.8613C40.2486 65.023 40.2388 65.0132 40.0134 64.8123C39.0481 63.9548 37.9652 63.2933 36.7451 62.8572C35.5152 62.4211 34.2461 62.2496 32.9427 62.3133C30.2085 62.4456 27.9055 63.5187 26.0484 65.5228C24.7499 66.9291 23.912 68.5902 23.5837 70.4816C23.0545 73.5441 23.6866 76.342 25.6221 78.7969C27.1019 80.6736 29.0423 81.8398 31.3894 82.3053C33.4572 82.7169 35.4956 82.5748 37.4458 81.7614C39.1706 81.0411 40.572 79.9092 41.4883 78.2481C42.0077 77.3073 42.2821 76.2832 42.4389 75.2248C42.4732 74.9945 42.4585 74.9798 42.189 74.9749C41.4295 74.97 40.67 74.9651 39.9154 74.9651C37.9162 74.9651 35.9219 74.9651 33.9227 74.9651C33.8198 74.9651 33.7218 74.9651 33.6189 74.9651C33.4474 74.9749 33.369 74.9063 33.369 74.7201C33.3739 73.6078 33.369 72.4955 33.369 71.3832C33.369 71.2019 33.4376 71.1382 33.614 71.1382C33.9276 71.148 34.2461 71.1382 34.5646 71.1382C36.309 71.1382 38.0534 71.1382 39.7978 71.1382L39.8076 71.148Z" fill="#FBFBFB"/>
<path d="M100.205 70.369C100.318 70.271 100.279 70.1485 100.279 70.0407C100.284 69.7614 100.284 69.4821 100.279 69.2077C100.279 69.0411 100.313 68.948 100.509 68.948C101.607 68.9529 102.709 68.948 103.807 68.948C103.963 68.948 104.042 69.0117 104.042 69.1685C104.042 69.2567 104.042 69.3449 104.042 69.4331C104.042 74.5291 104.042 79.6202 104.042 84.7162C104.042 86.1225 103.939 87.519 103.498 88.8714C102.503 91.9437 100.386 93.7273 97.2211 94.2663C95.8197 94.5064 94.4281 94.4623 93.0512 94.0703C91.2088 93.5411 89.7437 92.4778 88.5971 90.9588C88.2247 90.4639 87.9062 89.9298 87.6465 89.3663C87.5289 89.1017 87.5289 89.0968 87.8033 88.9792C88.7686 88.5725 89.7388 88.1707 90.709 87.7689C90.9687 87.6611 90.9785 87.666 91.101 87.9257C91.5371 88.8175 92.1447 89.5672 92.9826 90.1111C93.8842 90.6991 94.874 90.9196 95.9422 90.8363C96.7115 90.7775 97.4416 90.6109 98.108 90.214C99.1762 89.5819 99.7642 88.6117 100.068 87.4406C100.313 86.4851 100.293 85.51 100.284 84.5398C100.284 84.481 100.293 84.3977 100.225 84.3683C100.097 84.3144 100.048 84.4418 99.9896 84.5055C98.9949 85.5492 97.7552 86.098 96.3489 86.2842C94.7368 86.4949 93.1933 86.2058 91.7576 85.4463C88.9989 83.991 87.3525 81.7027 86.9115 78.6108C86.5391 75.9844 87.2447 73.6226 88.9254 71.5695C90.1357 70.0897 91.6694 69.0754 93.5412 68.6246C95.4767 68.1591 97.3289 68.3404 99.0439 69.4282C99.3624 69.634 99.6613 69.8692 99.9259 70.1436C100.009 70.2318 100.078 70.3445 100.21 70.369H100.205ZM100.543 77.2437C100.553 76.6067 100.431 75.8521 100.141 75.1269C99.6025 73.7549 98.7009 72.7259 97.2946 72.2065C95.3444 71.4911 93.1051 72.2261 91.8507 73.9705C91.0275 75.1171 90.7041 76.4058 90.7972 77.8023C90.905 79.483 91.5763 80.8844 92.9532 81.884C95.0112 83.3834 97.8532 83.0551 99.431 80.9432C100.22 79.8897 100.548 78.6941 100.543 77.2486V77.2437Z" fill="#FBFBFB"/>
<path d="M56.8351 68.3794C60.0593 68.5068 62.7445 69.8837 64.4889 72.858C65.4738 74.5338 65.7972 76.3713 65.611 78.3019C65.4297 80.1982 64.7388 81.8838 63.4746 83.3097C61.6861 85.3236 59.4125 86.3428 56.7371 86.3428C53.3463 86.3428 50.6709 84.9316 48.8824 82.0161C46.9469 78.8605 47.0939 74.0144 50.3083 70.9078C51.7048 69.5554 53.3855 68.7665 55.3112 68.4921C55.762 68.4284 56.2177 68.4186 56.8351 68.3843V68.3794ZM61.7057 77.1749C61.7155 76.5379 61.5538 75.7294 61.2108 74.9503C59.731 71.5791 55.2769 70.8882 52.9004 73.6665C51.3177 75.5138 51.1462 78.4685 52.5035 80.5314C54.3851 83.3979 58.3835 83.589 60.5248 80.9038C61.3431 79.8748 61.7008 78.6841 61.7057 77.17V77.1749Z" fill="#FBFBFB"/>
<path d="M76.2248 86.3428C72.491 86.2007 69.6441 84.6033 68.0173 81.1586C66.4003 77.7286 67.1941 73.5048 69.8891 70.8931C71.3052 69.5211 73.0104 68.7224 74.9704 68.4774C77.2636 68.1883 79.4098 68.6195 81.3355 69.9229C83.6581 71.4909 84.9174 73.7106 85.1918 76.4938C85.3633 78.2088 85.1036 79.8601 84.3196 81.3938C82.8153 84.3387 80.3654 85.9361 77.0971 86.3085C76.9452 86.3281 76.7932 86.333 76.6413 86.3379C76.5041 86.3428 76.362 86.3379 76.2248 86.3379V86.3428ZM81.2768 77.366C81.2768 76.2096 81.0023 75.2149 80.4388 74.3035C78.6062 71.3439 74.4118 71.1332 72.2999 73.8968C70.825 75.8225 70.781 78.7135 72.1971 80.7127C74.0003 83.2607 77.6458 83.5351 79.7969 81.2713C80.8308 80.1835 81.2865 78.8605 81.2816 77.3709L81.2768 77.366Z" fill="#FBFBFB"/>
<path d="M120.653 86.3479C118.458 86.3087 116.189 85.363 114.445 83.3099C113.127 81.7615 112.47 79.9387 112.367 77.9248C112.264 75.9207 112.637 74.0146 113.715 72.2947C115.214 69.8986 117.394 68.5903 120.222 68.4188C123.142 68.2424 125.411 69.4478 127.136 71.7655C127.846 72.721 128.307 73.799 128.728 74.9015C128.816 75.1318 128.807 75.1367 128.503 75.2592C126.518 76.0824 124.534 76.9056 122.544 77.7239C120.756 78.4638 118.972 79.2037 117.184 79.9387C117.135 79.9583 117.091 79.9828 117.042 79.9975C116.865 80.0563 116.846 80.1543 116.934 80.316C117.605 81.5214 118.561 82.3838 119.942 82.668C122.079 83.109 124.044 82.4622 125.391 80.5512C125.558 80.3111 125.563 80.3111 125.803 80.4679C126.68 81.0461 127.552 81.6243 128.424 82.2074C128.66 82.3642 128.664 82.374 128.508 82.5798C126.675 85.02 124.127 86.3577 120.658 86.343L120.653 86.3479ZM116.165 77.0722C116.307 77.0232 116.39 76.9987 116.468 76.9693C118.869 75.9746 121.27 74.975 123.671 73.9754C124.225 73.7451 124.24 73.7108 123.872 73.2257C123.25 72.4123 122.392 72.0301 121.403 71.9027C119.438 71.6528 117.561 72.8827 116.743 74.4605C116.326 75.2592 116.145 76.1118 116.165 77.0673V77.0722Z" fill="#FBFBFB"/>
<path d="M106.648 72.5984C106.648 68.3501 106.648 64.1018 106.648 59.8535C106.648 59.3635 106.599 59.3929 107.089 59.3978C108.153 59.3978 109.211 59.3978 110.274 59.4076C110.593 59.4076 110.593 59.4125 110.598 59.7163C110.598 59.78 110.598 59.8437 110.598 59.9074C110.598 68.3795 110.598 76.8467 110.598 85.3188C110.598 85.848 110.681 85.8039 110.118 85.8088C109.118 85.8088 108.118 85.8088 107.124 85.8088C107.035 85.8088 106.947 85.8088 106.859 85.8088C106.722 85.8137 106.643 85.7647 106.653 85.6128C106.658 85.5099 106.653 85.4119 106.653 85.309C106.653 81.0754 106.653 76.8369 106.653 72.6033L106.648 72.5984Z" fill="#FBFBFB"/>
</svg>
