<svg width="148" height="147" viewBox="0 0 148 147" fill="none" xmlns="http://www.w3.org/2000/svg">
<path d="M34.3784 86.3675C32.732 86.6566 31.0611 86.7448 29.3314 86.9751L24.0541 71.5107V87.6366C22.4077 87.8081 20.9083 88.0384 19.3501 88.2736V58.7315H23.7356L29.7381 75.4944V58.7315H34.3833V86.3675H34.3784ZM43.4679 69.5507C45.2564 69.5507 47.9955 69.4625 49.6419 69.4625V74.0783C47.5937 74.0783 45.1976 74.0783 43.4679 74.1665V81.0314C46.1776 80.8599 48.8922 80.6296 51.6313 80.5414V84.9857L38.8521 85.9951V58.7315H51.6313V63.3473H43.4679V69.5507ZM68.796 63.3473H64.0087V84.579C62.4505 84.579 60.8923 84.579 59.3929 84.6378V63.3473H54.6056V58.7315H68.8009V63.3473H68.796ZM76.2979 69.2322H82.614V73.848H76.2979V84.3193H71.7703V58.7315H84.6671V63.3473H76.3028V69.2322H76.2979ZM92.1641 80.2817C94.7905 80.3405 97.4414 80.5414 100.009 80.6835V85.2405C95.8832 84.9808 91.7574 84.7211 87.5483 84.6329V58.7266H92.1641V80.2768V80.2817ZM103.904 85.559C105.374 85.6472 106.933 85.7305 108.432 85.9069V58.7315H103.904V85.559ZM128.659 58.7315L122.804 72.7798L128.659 88.2736C126.93 88.0433 125.195 87.7248 123.465 87.4357L120.148 78.895L116.772 86.7399C115.096 86.4508 113.484 86.3626 111.808 86.1323L117.752 72.6034L112.386 58.7266H117.35L120.378 66.4882L123.607 58.7266H128.654L128.659 58.7315Z" fill="#FBFBFB"/>
</svg>
