<svg width="148" height="147" viewBox="0 0 148 147" fill="none" xmlns="http://www.w3.org/2000/svg">
<path d="M35.2262 80.0169C35.5986 81.0018 36.1082 81.8397 36.7648 82.5355C37.4214 83.2313 38.1956 83.7654 39.0923 84.1378C39.989 84.5102 40.9641 84.6915 42.0176 84.6915C43.0711 84.6915 44.0021 84.5004 44.9037 84.1133C45.8004 83.7311 46.5844 83.1872 47.2557 82.4914C47.927 81.7956 48.4464 80.9626 48.8139 79.9924C49.1863 79.0222 49.3676 77.9393 49.3676 76.7437V58.2854H53.856V88.195H49.4117V85.4167C48.417 86.4702 47.241 87.2836 45.8886 87.852C44.5362 88.4204 43.076 88.7046 41.508 88.7046C39.94 88.7046 38.4259 88.4253 37.0441 87.8716C35.6623 87.3179 34.4667 86.5241 33.4573 85.5C32.4479 84.4759 31.6492 83.2411 31.0661 81.8054C30.483 80.3648 30.189 78.7625 30.189 76.9985V58.2854H34.6774V76.7437C34.6774 77.9393 34.8636 79.032 35.2311 80.012L35.2262 80.0169Z" fill="#FBFBFB"/>
<path d="M61.5884 58.2903V69.1879C62.5831 68.1932 63.7395 67.3994 65.0478 66.8163C66.3561 66.2332 67.782 65.9392 69.3206 65.9392C70.8592 65.9392 72.4125 66.2381 73.809 66.8359C75.2055 67.4337 76.4158 68.2471 77.4399 69.2712C78.464 70.2953 79.2774 71.5056 79.8752 72.9021C80.473 74.2986 80.7719 75.7784 80.7719 77.3464C80.7719 78.9144 80.473 80.3893 79.8752 81.7711C79.2774 83.1529 78.464 84.3583 77.4399 85.3824C76.4158 86.4065 75.2055 87.2199 73.809 87.8177C72.4125 88.4155 70.918 88.7144 69.3206 88.7144C67.7232 88.7144 66.3512 88.4204 65.0282 87.8373C63.7052 87.2542 62.5439 86.4653 61.5443 85.4657V88.1999H57.2715V58.2903H61.5884ZM62.0784 80.2962C62.4606 81.2076 62.9947 82.0063 63.6807 82.6874C64.3667 83.3734 65.1605 83.9124 66.0719 84.3093C66.9833 84.7062 67.9682 84.9071 69.0217 84.9071C70.0752 84.9071 71.016 84.7062 71.9274 84.3093C72.8388 83.9124 73.6277 83.3685 74.299 82.6874C74.9703 82.0014 75.5044 81.2076 75.9013 80.2962C76.2982 79.3848 76.4991 78.3999 76.4991 77.3464C76.4991 76.2929 76.2982 75.3031 75.9013 74.377C75.5044 73.4509 74.9703 72.6473 74.299 71.9613C73.6277 71.2753 72.8388 70.7412 71.9274 70.359C71.016 69.9768 70.0458 69.7808 69.0217 69.7808C67.9976 69.7808 67.0274 69.9719 66.116 70.359C65.2046 70.7412 64.4059 71.2753 63.7248 71.9613C63.0388 72.6473 62.4998 73.4509 62.1029 74.377C61.706 75.3031 61.5051 76.2929 61.5051 77.3464C61.5051 78.3999 61.6962 79.3848 62.0833 80.2962H62.0784Z" fill="#FBFBFB"/>
<path d="M83.2071 72.9463C83.7755 71.5792 84.5595 70.3738 85.5591 69.335C86.5587 68.2962 87.7396 67.4779 89.1067 66.8801C90.4738 66.2823 91.9536 65.9834 93.551 65.9834C95.1484 65.9834 96.5694 66.2676 97.9071 66.836C99.2448 67.4044 100.401 68.1982 101.366 69.2076C102.337 70.217 103.091 71.4175 103.63 72.7944C104.169 74.1762 104.444 75.6805 104.444 77.3024V78.7136H86.7106C86.8527 79.5956 87.1369 80.4139 87.5632 81.1685C87.9895 81.9231 88.5236 82.5797 89.1655 83.1334C89.8074 83.6871 90.5326 84.1232 91.346 84.4368C92.1594 84.7504 93.0218 84.9072 93.9332 84.9072C96.5253 84.9072 98.6176 83.839 100.215 81.7026L103.336 84.0105C102.253 85.4609 100.916 86.6026 99.3183 87.4307C97.7209 88.2588 95.9275 88.6704 93.9332 88.6704C92.3113 88.6704 90.7923 88.3862 89.3811 87.8178C87.9699 87.2494 86.7449 86.4507 85.7061 85.4266C84.6673 84.4025 83.849 83.1971 83.2512 81.8153C82.6534 80.4335 82.3545 78.9292 82.3545 77.3073C82.3545 75.7687 82.6387 74.3183 83.2071 72.9512V72.9463ZM89.2096 71.2607C87.9993 72.2701 87.1957 73.6176 86.7939 75.2983H100.083C99.7103 73.6176 98.9214 72.2701 97.7111 71.2607C96.5008 70.2513 95.0847 69.7417 93.4579 69.7417C91.836 69.7417 90.415 70.2464 89.2047 71.2607H89.2096Z" fill="#FBFBFB"/>
<path d="M112.519 71.7459C111.608 72.7406 111.152 74.0979 111.152 75.8031V88.1952H106.835V66.4049H111.108V69.095C111.647 68.213 112.352 67.5123 113.225 67.0027C114.092 66.4882 115.126 66.2334 116.321 66.2334H117.816V70.2514H116.022C114.597 70.2514 113.43 70.7512 112.519 71.7459Z" fill="#FBFBFB"/>
</svg>
