<svg width="148" height="147" viewBox="0 0 148 147" fill="none" xmlns="http://www.w3.org/2000/svg">
<path d="M114.886 88.1509C114.886 87.1219 115.67 86.3428 116.645 86.3428C117.62 86.3428 118.404 87.1268 118.404 88.1509C118.404 89.175 117.62 89.959 116.645 89.959C115.67 89.959 114.886 89.175 114.886 88.1509ZM117.987 88.2636V88.0333C117.987 87.2934 117.409 86.7152 116.645 86.7152C115.88 86.7152 115.302 87.2934 115.302 88.0333V88.2636C115.302 89.0035 115.88 89.5817 116.645 89.5817C117.409 89.5817 117.987 89.0035 117.987 88.2636ZM116.38 89.0819H115.934V87.2444H116.767C117.179 87.2444 117.389 87.4894 117.389 87.8226C117.389 88.1117 117.257 88.2979 117.056 88.3763L117.468 89.077H116.978L116.635 88.4449H116.38V89.077V89.0819ZM116.713 88.1166C116.855 88.1166 116.934 88.0529 116.934 87.9255V87.7932C116.934 87.6609 116.855 87.6021 116.713 87.6021H116.38V88.1215H116.713V88.1166ZM29.606 87.7785H45.7074V89.8708H29.606V87.7785ZM29.606 85.4804H45.7074V83.3881H29.606V85.4804ZM34.2071 81.09H41.1063V78.9977H34.2071V81.09ZM34.2071 76.6996H41.1063V74.6073H34.2071V76.6996ZM34.2071 72.3092H41.1063V70.2169H34.2071V72.3092ZM41.1063 65.8265H34.2071V67.9188H41.1063V65.8265ZM29.606 63.5284H45.7074V61.4361H29.606V63.5284ZM29.606 59.138H45.7074V57.0457H29.606V59.138ZM48.0055 87.7834V89.8757H64.9448C67.1155 89.8757 69.1 89.0868 70.6288 87.7834H48.0055ZM48.0055 83.393V85.4853H72.5447C72.922 84.8385 73.216 84.1329 73.4169 83.393H48.0055ZM52.6066 79.0026V81.0949H59.5058V79.0026H52.6066ZM52.6066 70.2218V72.3141H70.8591C71.5206 71.7065 72.0939 71.0058 72.5447 70.2218H52.6066ZM73.4169 63.5284C73.216 62.7885 72.922 62.0878 72.5447 61.4361H48.0055V63.5284H73.4169ZM52.6066 65.8265V67.9188H59.5058V65.8265H52.6066ZM65.9885 67.9188H73.4708C73.6325 67.2475 73.7256 66.5468 73.7256 65.8265H65.9885V67.9188ZM65.9885 79.0026V81.0949H73.7256C73.7256 80.3746 73.6325 79.6739 73.4708 79.0026H65.9885ZM70.8591 74.6122H52.6066V76.7045H72.5447C72.0939 75.9205 71.5206 75.2198 70.8591 74.6122ZM70.6288 59.138C69.0951 57.8346 67.1106 57.0457 64.9448 57.0457H48.0055V59.138H70.6288ZM75.6072 89.8757H87.1075V87.7834H75.6072V89.8757ZM75.6072 85.4853H87.1075V83.393H75.6072V85.4853ZM80.2083 81.0949H87.1075V79.0026H80.2083V81.0949ZM80.2083 76.7045H87.1075V74.6122H80.2083V76.7045ZM100.911 89.8757H112.411V87.7834H100.911V89.8757ZM100.911 85.4853H112.411V83.393H100.911V85.4853ZM100.911 81.0949H107.81V79.0026H100.911V81.0949ZM107.81 74.6122H100.911V76.7045H107.81V74.6122ZM100.911 72.3141H107.81V70.2218H94.874L94.1488 72.3141H100.205L100.906 70.3247V72.3141H100.911ZM107.81 65.8314H96.3979L95.6726 67.9237H107.81V65.8314ZM99.4457 57.0506L98.7205 59.1429H112.411V57.0506H99.4457ZM94.0067 89.8659L94.7417 87.7883H93.2717L94.0067 89.8659ZM92.4582 85.4853H95.5501L96.2901 83.393H91.7233L92.4632 85.4853H92.4582ZM90.9099 81.0949H97.1035L97.8434 79.0026H90.1749L90.9148 81.0949H90.9099ZM89.3615 76.7045H98.6568L99.3967 74.6122H88.6265L89.3664 76.7045H89.3615ZM80.2083 67.9237H92.3456L91.6204 65.8314H80.2083V67.9237ZM97.1966 63.5333H112.411V61.441H97.9218L97.1966 63.5333ZM90.0965 61.441H75.6072V63.5333H90.8217L90.0965 61.441ZM88.5726 57.0506H75.6072V59.1429H89.2978L88.5726 57.0506ZM93.8695 72.3141L93.1443 70.2218H80.2083V72.3141H87.1075V70.3296L87.8082 72.3141H93.8645H93.8695Z" fill="#FBFBFB"/>
</svg>
