<svg width="148" height="147" viewBox="0 0 148 147" fill="none" xmlns="http://www.w3.org/2000/svg">
<path d="M25.9457 52.915C14.5777 52.915 5.36084 62.1319 5.36084 73.4999C5.36084 84.8679 14.5777 94.0848 25.9457 94.0848C37.3137 94.0848 46.5306 84.8679 46.5306 73.4999C46.5306 62.1319 37.3137 52.915 25.9457 52.915ZM35.388 82.6041C35.0205 83.2068 34.2267 83.4028 33.624 83.0304C28.7926 80.0757 22.7068 79.4093 15.5381 81.0459C14.8472 81.2027 14.1612 80.7715 13.9995 80.0806C13.8427 79.3897 14.2739 78.7037 14.9648 78.542C22.8048 76.7486 29.5325 77.5228 34.9617 80.8401C35.5644 81.2125 35.7604 82.0014 35.388 82.6041ZM37.9066 76.9985C37.4411 77.7531 36.4513 77.9932 35.6967 77.5277C30.1646 74.1271 21.7268 73.1422 15.1804 75.1267C14.3327 75.3815 13.436 74.9062 13.1763 74.0585C12.9215 73.2108 13.4017 72.3141 14.2445 72.0544C21.7219 69.7857 31.0172 70.8833 37.3725 74.7886C38.1271 75.2541 38.3672 76.2439 37.9017 76.9936L37.9066 76.9985ZM38.1222 71.1626C31.4876 67.223 20.541 66.8604 14.2053 68.7812C13.1861 69.0899 12.113 68.5166 11.8043 67.4974C11.4956 66.4782 12.0689 65.4051 13.0881 65.0964C20.3597 62.8865 32.448 63.3177 40.0871 67.8502C41.0034 68.3941 41.3023 69.575 40.7584 70.4864C40.2194 71.4027 39.0336 71.7016 38.1222 71.1577V71.1626ZM61.3678 71.9172C57.8153 71.0695 57.1832 70.4766 57.1832 69.2222C57.1832 68.0413 58.2955 67.2475 59.9468 67.2475C61.5981 67.2475 63.1367 67.8502 64.8027 69.0948C64.8517 69.134 64.9154 69.1487 64.9791 69.1389C65.0428 69.1291 65.0967 69.0948 65.1359 69.0458L66.8705 66.6007C66.944 66.4978 66.9244 66.3606 66.8264 66.2822C64.8419 64.6897 62.6124 63.9155 60.0007 63.9155C56.164 63.9155 53.4837 66.2185 53.4837 69.5162C53.4837 73.0491 55.7965 74.3035 59.7949 75.2688C63.1955 76.0528 63.7688 76.7094 63.7688 77.8805C63.7688 79.179 62.6075 79.9875 60.7406 79.9875C58.6679 79.9875 56.9725 79.2868 55.0811 77.6502C55.0321 77.6061 54.9684 77.5914 54.9096 77.5914C54.8459 77.5963 54.7871 77.6257 54.7479 77.6747L52.8026 79.9924C52.7193 80.0904 52.7291 80.2325 52.8271 80.3158C55.0321 82.2807 57.7369 83.3195 60.6622 83.3195C64.7978 83.3195 67.4683 81.0606 67.4683 77.562C67.4781 74.6122 65.7092 72.9756 61.3776 71.9221H61.3678V71.9172ZM76.8224 68.4137C75.029 68.4137 73.559 69.1193 72.3438 70.5648V68.938C72.3438 68.8106 72.2409 68.7028 72.1135 68.7028H68.9285C68.8011 68.7028 68.6982 68.8057 68.6982 68.938V87.0337C68.6982 87.1611 68.8011 87.2689 68.9285 87.2689H72.1135C72.2409 87.2689 72.3438 87.1611 72.3438 87.0337V81.3252C73.559 82.6825 75.029 83.3489 76.8224 83.3489C80.1544 83.3489 83.5256 80.7862 83.5256 75.8813C83.5305 70.9764 80.1593 68.4137 76.8224 68.4137ZM79.8261 75.8813C79.8261 78.3754 78.2875 80.1198 76.0874 80.1198C73.8873 80.1198 72.2703 78.297 72.2703 75.8813C72.2703 73.4656 73.9118 71.6428 76.0874 71.6428C78.2532 71.6428 79.8261 73.4264 79.8261 75.8813ZM92.1692 68.4137C87.8817 68.4137 84.5203 71.7163 84.5203 75.9352C84.5203 80.1541 87.8572 83.3734 92.1202 83.3734C96.3832 83.3734 99.7936 80.0806 99.7936 75.8813C99.7936 71.682 96.4469 68.4137 92.1692 68.4137ZM92.1692 80.1443C89.8858 80.1443 88.1659 78.3117 88.1659 75.8813C88.1659 73.4509 89.827 71.6673 92.1153 71.6673C94.4036 71.6673 96.1431 73.4999 96.1431 75.9303C96.1431 78.3607 94.4722 80.1394 92.1692 80.1394V80.1443ZM108.952 68.7077H105.448V65.1258C105.448 64.9984 105.345 64.8906 105.218 64.8906H102.033C101.906 64.8906 101.798 64.9935 101.798 65.1258V68.7077H100.269C100.142 68.7077 100.039 68.8106 100.039 68.9429V71.6771C100.039 71.8045 100.142 71.9123 100.269 71.9123H101.798V78.9928C101.798 81.8495 103.219 83.2999 106.031 83.2999C107.173 83.2999 108.119 83.0647 109.011 82.5551C109.084 82.5159 109.128 82.4375 109.128 82.3542V79.7474C109.128 79.669 109.084 79.5906 109.015 79.5514C108.947 79.5073 108.859 79.5024 108.79 79.5416C108.178 79.8503 107.585 79.9924 106.923 79.9924C105.904 79.9924 105.443 79.5269 105.443 78.4881V71.9074H108.947C109.074 71.9074 109.177 71.8045 109.177 71.6722V68.938C109.182 68.8106 109.079 68.7028 108.947 68.7028L108.952 68.7077ZM121.153 68.7224V68.2814C121.153 66.9878 121.648 66.4096 122.76 66.4096C123.421 66.4096 123.956 66.5419 124.553 66.7428C124.627 66.7673 124.705 66.7526 124.764 66.7085C124.828 66.6644 124.862 66.5958 124.862 66.5174V63.8371C124.862 63.7342 124.798 63.646 124.695 63.6117C124.068 63.4255 123.26 63.2295 122.049 63.2295C119.109 63.2295 117.556 64.8857 117.556 68.0168V68.6881H116.027C115.9 68.6881 115.792 68.791 115.792 68.9233V71.6722C115.792 71.7996 115.9 71.9074 116.027 71.9074H117.556V82.8246C117.556 82.9569 117.664 83.0598 117.791 83.0598H120.971C121.104 83.0598 121.207 82.9569 121.207 82.8246V71.9074H124.181L128.733 82.8246C128.219 83.9712 127.709 84.1966 127.013 84.1966C126.455 84.1966 125.862 84.03 125.259 83.6968C125.2 83.6674 125.132 83.6625 125.073 83.6772C125.009 83.7017 124.96 83.7458 124.936 83.8046L123.858 86.1713C123.804 86.284 123.848 86.4163 123.96 86.4751C125.087 87.0827 126.102 87.3473 127.356 87.3473C129.708 87.3473 131.007 86.2497 132.148 83.3048L137.671 69.036C137.7 68.9625 137.69 68.8841 137.646 68.8204C137.602 68.7567 137.533 68.7175 137.455 68.7175H134.143C134.04 68.7175 133.952 68.7812 133.922 68.8743L130.526 78.5665L126.807 68.8645C126.773 68.7763 126.685 68.7126 126.592 68.7126H121.153V68.7224ZM114.077 68.7077H110.892C110.765 68.7077 110.657 68.8106 110.657 68.9429V82.8295C110.657 82.9618 110.765 83.0647 110.892 83.0647H114.077C114.205 83.0647 114.312 82.9618 114.312 82.8295V68.9478C114.312 68.8204 114.209 68.7126 114.077 68.7126V68.7077ZM112.504 62.3867C111.245 62.3867 110.221 63.4059 110.221 64.6701C110.221 65.9343 111.245 66.9535 112.504 66.9535C113.764 66.9535 114.788 65.9294 114.788 64.6701C114.788 63.4108 113.764 62.3867 112.504 62.3867ZM140.385 73.1716C139.126 73.1716 138.146 72.1622 138.146 70.9323C138.146 69.7024 139.141 68.6832 140.4 68.6832C141.659 68.6832 142.639 69.6926 142.639 70.9225C142.639 72.1524 141.645 73.1765 140.385 73.1765V73.1716ZM140.4 68.9037C139.253 68.9037 138.386 69.8151 138.386 70.9323C138.386 72.0495 139.248 72.9462 140.39 72.9462C141.532 72.9462 142.404 72.0348 142.404 70.9176C142.404 69.8004 141.542 68.9037 140.4 68.9037ZM140.895 71.1479L141.527 72.0348H140.993L140.424 71.2214H139.934V72.0348H139.489V69.6828H140.537C141.086 69.6828 141.444 69.9621 141.444 70.4325C141.444 70.8196 141.223 71.0548 140.9 71.1479H140.895ZM140.518 70.0895H139.934V70.8343H140.518C140.807 70.8343 140.983 70.6922 140.983 70.4619C140.983 70.2218 140.807 70.0895 140.518 70.0895Z" fill="#FBFBFB"/>
</svg>
