<svg width="148" height="147" viewBox="0 0 148 147" fill="none" xmlns="http://www.w3.org/2000/svg">
<path d="M76.9989 95.0991V82.9226L69.4431 89.0084L61.7991 82.9226V95.0991H36.9561V51.8174H60.9955L69.2618 60.5247L77.7045 51.8174H101.788V70.3933C101.788 70.3933 96.7214 80.5265 96.3686 81.237C96.0109 81.9475 95.124 82.0357 94.9476 81.237C94.7712 80.4383 94.0607 72.6179 92.9925 72.172C91.9243 71.7261 89.8467 71.0058 88.9059 72.4366C87.9504 73.8919 87.5731 73.6861 88.3718 76.6114C89.1705 79.5465 93.9725 91.0958 93.9725 91.0958C93.9725 91.0958 94.0313 91.625 95.0799 91.7965C96.447 92.017 97.8827 92.0758 98.3237 91.0958C98.7696 90.1158 101.788 81.2321 101.788 81.2321V95.0942H86.6813L85.8826 71.4517C85.8826 71.4517 93.3502 67.4533 93.6148 66.2969C93.8794 65.1405 92.3702 63.1854 91.1256 63.8959C89.881 64.6064 84.3734 67.8943 84.3734 67.8943C84.3734 67.8943 83.7511 67.9825 83.1288 67.8943C82.5065 67.8061 80.375 67.4484 80.1937 68.7812C80.0173 70.114 80.0173 70.8245 80.0173 70.8245C80.0173 70.8245 76.7294 73.1373 74.4166 74.3819C72.1038 75.6265 69.84 76.2488 69.3745 76.7829C68.909 77.317 68.5072 78.4734 69.3745 79.4485C70.2418 80.4236 70.9523 81.0459 72.3733 80.2472C73.7943 79.4485 78.7041 75.5873 79.2186 75.4501C79.787 75.2933 80.816 74.4701 81.0855 76.2488C81.355 78.0275 80.9091 95.0893 80.9091 95.0893H76.9989V95.0991Z" fill="#FBFBFB"/>
<path d="M66.6011 95.0993V89.234L63.4014 86.5684V95.0993H66.6011Z" fill="#FBFBFB"/>
<path d="M71.9321 89.4104L75.22 86.5684V88.6999L74.6908 89.4104H71.9321Z" fill="#FBFBFB"/>
<path d="M63.4014 51.8174L69.3794 57.8591L71.4913 55.463L70.9572 54.8407L63.4014 51.8174Z" fill="#FBFBFB"/>
<path d="M103.483 51.8174L107.305 54.1253V63.0139L103.483 67.7277V51.8174Z" fill="#FBFBFB"/>
<path d="M107.305 71.104V95.0993H103.483V77.3221L107.305 71.104Z" fill="#FBFBFB"/>
<path d="M108.432 95.1825V93.8203H107.947V93.541H109.251V93.8203H108.766V95.1825H108.432Z" fill="#FBFBFB"/>
<path d="M109.457 95.1825V93.541H109.951L110.25 94.6582L110.544 93.541H111.039V95.1825H110.731V93.8938L110.407 95.1825H110.089L109.765 93.8938V95.1825H109.457Z" fill="#FBFBFB"/>
</svg>
